<?xml version="1.0" encoding="UTF-8" standalone="no"?><!-- Generator: Adobe Illustrator 21.0.2, SVG Export Plug-In . SVG Version: 6.00 Build 0)  --><svg xmlns="http://www.w3.org/2000/svg" xmlns:xlink="http://www.w3.org/1999/xlink" contentScriptType="text/ecmascript" zoomAndPan="magnify" contentStyleType="text/css" id="Layer_1" enable-background="new 0 0 400 400" version="1.1" xml:space="preserve" fill="#000000" preserveAspectRatio="xMidYMid meet" viewBox="0 0 400 400" x="0px" y="0px">
<g>
	<g id="change1_1">
		<path fill="#ffffff" d="m199.5 392.2c-106 0-192.2-86.2-192.2-192.2s86.2-192.2 192.2-192.2 192.2 86.2 192.2 192.2-86.2 192.2-192.2 192.2zm0-373c-99.7 0-180.8 81.1-180.8 180.8s81.1 180.8 180.8 180.8 180.8-81.1 180.8-180.8-81.1-180.8-180.8-180.8z"/>
	</g>
	<g id="change1_2">
		<path fill="#ffffff" d="m217.2 251.2h-20.9v-57.2l0.2-9.4 0.3-10.3c-3.5 3.5-5.9 5.8-7.2 6.8l-11.4 9.1-10.1-12.6 31.9-25.4h17.2v99z"/>
	</g>
</g>
</svg>